# xmcd
#
# Track frame offsets: 
#        150
#        16897
#        30647
#        52247
#        71922
#        87835
#        97347
#        124122
#        145097
#        161847
#        173135
#        184797
#        204297
#
# Disc length: 2969 seconds
#
# Revision: 2
# Processed by: cddbd v1.5.2PL0 Copyright (c) Steve Scherf et al.
# Submitted via: ExactAudioCopy v1.0b3
#
DISCID=b90b970d
DTITLE=Leonard Cohen - Dear Heather
DYEAR=2004
DGENRE=Folk
TTITLE0=Go No More A-Roving
TTITLE1=Because of
TTITLE2=The Letters
TTITLE3=Undertow
TTITLE4=Morning Glory
TTITLE5=On That Day
TTITLE6=Villanelle for Our Time
TTITLE7=There for You
TTITLE8=Dear Heather
TTITLE9=Nightingale
TTITLE10=To a Teacher
TTITLE11=The Faith
TTITLE12=Tenessee Waltz
EXTD=
EXTT0=
EXTT1=
EXTT2=
EXTT3=
EXTT4=
EXTT5=
EXTT6=
EXTT7=
EXTT8=
EXTT9=
EXTT10=
EXTT11=
EXTT12=
PLAYORDER=
